<svg width="1356" height="506" viewBox="0 0 1356 506" fill="none" xmlns="http://www.w3.org/2000/svg">
<rect width="1356" height="506" rx="48" fill="#2047F4"/>
<path fill-rule="evenodd" clip-rule="evenodd" d="M890.108 192.421V87.01C801.481 87.01 756.485 113.436 712.223 139.812L712.217 139.815C668.028 166.148 623.923 192.431 535.648 192.431H535V299.148C623.628 299.148 668.624 272.723 712.885 246.346L712.892 246.343C756.982 220.069 800.987 193.845 888.867 193.728V293.862C800.635 293.98 756.386 320.346 712.223 346.664L712.217 346.667C668.028 373 623.275 399.283 535 399.283V506C623.628 506 668.624 479.574 712.885 453.199L712.892 453.195C756.982 426.921 800.987 400.697 888.867 400.579V506C976.502 506 1021 479.573 1064.77 453.197L1064.77 453.193C1108.47 426.86 1152.72 400.579 1240 400.579V293.862C1152.36 293.862 1107.86 320.289 1064.1 346.665L1064.09 346.668C1020.5 372.942 976.992 399.163 890.108 399.282V299.138C977.349 299.019 1021.1 272.651 1064.77 246.335L1064.77 246.332C1108.47 219.998 1152.72 193.717 1240 193.717V87C1152.36 87 1107.86 113.427 1064.1 139.803L1064.09 139.807C1020.5 166.08 976.992 192.302 890.108 192.421Z" fill="url(#paint0_linear_579_11)"/>
<rect width="1356" height="506" rx="48" fill="url(#paint1_linear_579_11)" fill-opacity="0.49"/>
<defs>
<linearGradient id="paint0_linear_579_11" x1="568.742" y1="334.287" x2="1270.41" y2="-18.6617" gradientUnits="userSpaceOnUse">
<stop stop-color="#2047F4"/>
<stop offset="0.366103" stop-color="#0F37EC"/>
<stop offset="1" stop-color="#1631AA"/>
</linearGradient>
<linearGradient id="paint1_linear_579_11" x1="1356" y1="277.5" x2="21" y2="274.5" gradientUnits="userSpaceOnUse">
<stop stop-color="#2047F4"/>
<stop offset="1" stop-color="#13298E"/>
</linearGradient>
</defs>
</svg>
